REM GENRE "Test Mix"
REM DATE "2023"
CATALOG 1234567890123
TITLE "Drag & Drop Test"
PERFORMER "Test Artist"
SONGWRITER "Test Composer"

FILE "test-mix.wav" WAVE
		TRACK 01 AUDIO
			TITLE "Test Track 1"
			PERFORMER "Artist One"
			INDEX 00 00:00:00
			INDEX 01 00:02:15
		TRACK 02 AUDIO
			TITLE "Test Track 2"
			PERFORMER "Artist Two"
			PREGAP 00:01:00
			INDEX 01 03:25:33
			FLAGS PRE
		TRACK 03 AUDIO
			TITLE "Test Track 3"
			ISRC USRC17607839
			INDEX 01 07:15:10
			POSTGAP 00:02:00